{
    "asset" : {
        "generator" : "Khronos glTF Blender I/O v3.2.43",
        "version" : "2.0"
    },
    "extensionsUsed" : [
        "OMI_collider"
    ],
    "scene" : 0,
    "scenes" : [
        {
            "name" : "Scene",
            "nodes" : [
                1,
                3,
                5,
                7,
                9
            ]
        }
    ],
    "nodes" : [
        {
            "extensions" : {
                "OMI_collider" : {
                    "type" : "box",
                    "extents" : [
                        1.0,
                        1.0,
                        1.0
                    ]
                }
            },
            "name" : "Box_Collider"
        },
        {
            "children" : [
                0
            ],
            "mesh" : 0,
            "name" : "Box"
        },
        {
            "extensions" : {
                "OMI_collider" : {
                    "type" : "sphere",
                    "radius" : 1.036438763141632
                }
            },
            "name" : "Sphere_Collider"
        },
        {
            "children" : [
                2
            ],
            "mesh" : 1,
            "name" : "Sphere",
            "translation" : [
                4,
                0,
                0
            ]
        },
        {
            "extensions" : {
                "OMI_collider" : {
                    "type" : "capsule",
                    "radius" : 0.48792552947998047,
                    "height" : 2.06648325920105
                }
            },
            "name" : "Capsule_Collider"
        },
        {
            "children" : [
                4
            ],
            "mesh" : 2,
            "name" : "Capsule",
            "translation" : [
                8,
                0,
                0
            ]
        },
        {
            "extensions" : {
                "OMI_collider" : {
                    "type" : "mesh",
                    "mesh" : 3
                }
            },
            "name" : "Mesh_Collider"
        },
        {
            "children" : [
                6
            ],
            "mesh" : 4,
            "name" : "Mesh",
            "translation" : [
                16,
                0,
                0
            ]
        },
        {
            "extensions" : {
                "OMI_collider" : {
                    "type" : "hull",
                    "mesh" : 5
                }
            },
            "name" : "Hull_Collider"
        },
        {
            "children" : [
                8
            ],
            "mesh" : 6,
            "name" : "Hull",
            "translation" : [
                12,
                0,
                0
            ]
        }
    ],
    "materials" : [
        {
            "doubleSided" : true,
            "name" : "Material",
            "pbrMetallicRoughness" : {
                "baseColorFactor" : [
                    0.800000011920929,
                    0.800000011920929,
                    0.800000011920929,
                    1
                ],
                "metallicFactor" : 0,
                "roughnessFactor" : 0.4000000059604645
            }
        }
    ],
    "meshes" : [
        {
            "name" : "Box_Display_Mesh",
            "primitives" : [
                {
                    "attributes" : {
                        "POSITION" : 0,
                        "NORMAL" : 1,
                        "TEXCOORD_0" : 2
                    },
                    "indices" : 3,
                    "material" : 0
                }
            ]
        },
        {
            "name" : "Sphere_Display_Mesh",
            "primitives" : [
                {
                    "attributes" : {
                        "POSITION" : 4,
                        "NORMAL" : 5,
                        "TEXCOORD_0" : 6
                    },
                    "indices" : 7,
                    "material" : 0
                }
            ]
        },
        {
            "name" : "Capsule_Display_Mesh",
            "primitives" : [
                {
                    "attributes" : {
                        "POSITION" : 8,
                        "NORMAL" : 9,
                        "TEXCOORD_0" : 10
                    },
                    "indices" : 11,
                    "material" : 0
                }
            ]
        },
        {
            "name" : "Mesh_Collider_Mesh",
            "primitives" : [
                {
                    "attributes" : {
                        "POSITION" : 12,
                        "NORMAL" : 13,
                        "TEXCOORD_0" : 14
                    },
                    "indices" : 15
                }
            ]
        },
        {
            "name" : "Mesh_Display_Mesh",
            "primitives" : [
                {
                    "attributes" : {
                        "POSITION" : 16,
                        "NORMAL" : 17,
                        "TEXCOORD_0" : 18
                    },
                    "indices" : 15
                }
            ]
        },
        {
            "name" : "Hull_Collider_Mesh",
            "primitives" : [
                {
                    "attributes" : {
                        "POSITION" : 19,
                        "NORMAL" : 20,
                        "TEXCOORD_0" : 21
                    },
                    "indices" : 22
                }
            ]
        },
        {
            "name" : "Hull_Display_Mesh",
            "primitives" : [
                {
                    "attributes" : {
                        "POSITION" : 23,
                        "NORMAL" : 24,
                        "TEXCOORD_0" : 25
                    },
                    "indices" : 15
                }
            ]
        }
    ],
    "accessors" : [
        {
            "bufferView" : 0,
            "componentType" : 5126,
            "count" : 1016,
            "max" : [
                1,
                1,
                1
            ],
            "min" : [
                -1,
                -1,
                -1
            ],
            "type" : "VEC3"
        },
        {
            "bufferView" : 1,
            "componentType" : 5126,
            "count" : 1016,
            "type" : "VEC3"
        },
        {
            "bufferView" : 2,
            "componentType" : 5126,
            "count" : 1016,
            "type" : "VEC2"
        },
        {
            "bufferView" : 3,
            "componentType" : 5123,
            "count" : 5172,
            "type" : "SCALAR"
        },
        {
            "bufferView" : 4,
            "componentType" : 5126,
            "count" : 559,
            "max" : [
                0.9999997019767761,
                1,
                0.9999994039535522
            ],
            "min" : [
                -0.9999990463256836,
                -1,
                -0.9999987483024597
            ],
            "type" : "VEC3"
        },
        {
            "bufferView" : 5,
            "componentType" : 5126,
            "count" : 559,
            "type" : "VEC3"
        },
        {
            "bufferView" : 6,
            "componentType" : 5126,
            "count" : 559,
            "type" : "VEC2"
        },
        {
            "bufferView" : 7,
            "componentType" : 5123,
            "count" : 2880,
            "type" : "SCALAR"
        },
        {
            "bufferView" : 8,
            "componentType" : 5126,
            "count" : 613,
            "max" : [
                0.45804503560066223,
                1,
                0.4580456018447876
            ],
            "min" : [
                -0.45804619789123535,
                -1,
                -0.4580453336238861
            ],
            "type" : "VEC3"
        },
        {
            "bufferView" : 9,
            "componentType" : 5126,
            "count" : 613,
            "type" : "VEC3"
        },
        {
            "bufferView" : 10,
            "componentType" : 5126,
            "count" : 613,
            "type" : "VEC2"
        },
        {
            "bufferView" : 11,
            "componentType" : 5123,
            "count" : 3264,
            "type" : "SCALAR"
        },
        {
            "bufferView" : 12,
            "componentType" : 5126,
            "count" : 1966,
            "max" : [
                1.3671875,
                0.984375,
                0.8515625
            ],
            "min" : [
                -1.3671875,
                -0.984375,
                -0.8515625
            ],
            "type" : "VEC3"
        },
        {
            "bufferView" : 13,
            "componentType" : 5126,
            "count" : 1966,
            "type" : "VEC3"
        },
        {
            "bufferView" : 14,
            "componentType" : 5126,
            "count" : 1966,
            "type" : "VEC2"
        },
        {
            "bufferView" : 15,
            "componentType" : 5123,
            "count" : 2904,
            "type" : "SCALAR"
        },
        {
            "bufferView" : 16,
            "componentType" : 5126,
            "count" : 1966,
            "max" : [
                1.3671875,
                0.984375,
                0.8515625
            ],
            "min" : [
                -1.3671875,
                -0.984375,
                -0.8515625
            ],
            "type" : "VEC3"
        },
        {
            "bufferView" : 17,
            "componentType" : 5126,
            "count" : 1966,
            "type" : "VEC3"
        },
        {
            "bufferView" : 18,
            "componentType" : 5126,
            "count" : 1966,
            "type" : "VEC2"
        },
        {
            "bufferView" : 19,
            "componentType" : 5126,
            "count" : 320,
            "max" : [
                1.3671875,
                0.984375,
                0.8515625
            ],
            "min" : [
                -1.3671875,
                -0.984375,
                -0.8515625
            ],
            "type" : "VEC3"
        },
        {
            "bufferView" : 20,
            "componentType" : 5126,
            "count" : 320,
            "type" : "VEC3"
        },
        {
            "bufferView" : 21,
            "componentType" : 5126,
            "count" : 320,
            "type" : "VEC2"
        },
        {
            "bufferView" : 22,
            "componentType" : 5123,
            "count" : 366,
            "type" : "SCALAR"
        },
        {
            "bufferView" : 23,
            "componentType" : 5126,
            "count" : 1966,
            "max" : [
                1.3671875,
                0.984375,
                0.8515625
            ],
            "min" : [
                -1.3671875,
                -0.984375,
                -0.8515625
            ],
            "type" : "VEC3"
        },
        {
            "bufferView" : 24,
            "componentType" : 5126,
            "count" : 1966,
            "type" : "VEC3"
        },
        {
            "bufferView" : 25,
            "componentType" : 5126,
            "count" : 1966,
            "type" : "VEC2"
        }
    ],
    "bufferViews" : [
        {
            "buffer" : 0,
            "byteLength" : 12192,
            "byteOffset" : 0
        },
        {
            "buffer" : 0,
            "byteLength" : 12192,
            "byteOffset" : 12192
        },
        {
            "buffer" : 0,
            "byteLength" : 8128,
            "byteOffset" : 24384
        },
        {
            "buffer" : 0,
            "byteLength" : 10344,
            "byteOffset" : 32512
        },
        {
            "buffer" : 0,
            "byteLength" : 6708,
            "byteOffset" : 42856
        },
        {
            "buffer" : 0,
            "byteLength" : 6708,
            "byteOffset" : 49564
        },
        {
            "buffer" : 0,
            "byteLength" : 4472,
            "byteOffset" : 56272
        },
        {
            "buffer" : 0,
            "byteLength" : 5760,
            "byteOffset" : 60744
        },
        {
            "buffer" : 0,
            "byteLength" : 7356,
            "byteOffset" : 66504
        },
        {
            "buffer" : 0,
            "byteLength" : 7356,
            "byteOffset" : 73860
        },
        {
            "buffer" : 0,
            "byteLength" : 4904,
            "byteOffset" : 81216
        },
        {
            "buffer" : 0,
            "byteLength" : 6528,
            "byteOffset" : 86120
        },
        {
            "buffer" : 0,
            "byteLength" : 23592,
            "byteOffset" : 92648
        },
        {
            "buffer" : 0,
            "byteLength" : 23592,
            "byteOffset" : 116240
        },
        {
            "buffer" : 0,
            "byteLength" : 15728,
            "byteOffset" : 139832
        },
        {
            "buffer" : 0,
            "byteLength" : 5808,
            "byteOffset" : 155560
        },
        {
            "buffer" : 0,
            "byteLength" : 23592,
            "byteOffset" : 161368
        },
        {
            "buffer" : 0,
            "byteLength" : 23592,
            "byteOffset" : 184960
        },
        {
            "buffer" : 0,
            "byteLength" : 15728,
            "byteOffset" : 208552
        },
        {
            "buffer" : 0,
            "byteLength" : 3840,
            "byteOffset" : 224280
        },
        {
            "buffer" : 0,
            "byteLength" : 3840,
            "byteOffset" : 228120
        },
        {
            "buffer" : 0,
            "byteLength" : 2560,
            "byteOffset" : 231960
        },
        {
            "buffer" : 0,
            "byteLength" : 732,
            "byteOffset" : 234520
        },
        {
            "buffer" : 0,
            "byteLength" : 23592,
            "byteOffset" : 235252
        },
        {
            "buffer" : 0,
            "byteLength" : 23592,
            "byteOffset" : 258844
        },
        {
            "buffer" : 0,
            "byteLength" : 15728,
            "byteOffset" : 282436
        }
    ],
    "buffers" : [
        {
            "byteLength" : 298164,
            "uri" : "data:application/octet-stream;base64,"
        }
    ]
}
