{
    "asset" : {
        "generator" : "Khronos glTF Blender I/O v3.2.43",
        "version" : "2.0"
    },
    "extensionsUsed" : [
        "OMI_collider"
    ],
    "scene" : 0,
    "scenes" : [
        {
            "name" : "Scene",
            "nodes" : [
                0,
                1,
                2
            ]
        }
    ],
    "nodes" : [
        {
            "extensions" : {
                "OMI_collider" : {
                    "type" : "hull",
                    "isTrigger" : true,
                    "mesh" : 0
                }
            },
            "name" : "Convex_Hull_Collider"
        },
        {
            "mesh" : 1,
            "name" : "Concave_Hull_Collider",
            "translation" : [
                4,
                0,
                0
            ]
        },
        {
            "mesh" : 2,
            "name" : "Convex_Hull_With_Holes_Collider",
            "translation" : [
                -4,
                0,
                0
            ]
        }
    ],
    "meshes" : [
        {
            "name" : "Convex_Hull_Collider_Mesh",
            "primitives" : [
                {
                    "attributes" : {
                        "POSITION" : 0,
                        "NORMAL" : 1,
                        "TEXCOORD_0" : 2
                    },
                    "indices" : 3
                }
            ]
        },
        {
            "name" : "Concave_Hull_Collider_Mesh",
            "primitives" : [
                {
                    "attributes" : {
                        "POSITION" : 4,
                        "NORMAL" : 5,
                        "TEXCOORD_0" : 6
                    },
                    "indices" : 7
                }
            ]
        },
        {
            "name" : "Convex_Hull_With_Holes_Collider_Mesh",
            "primitives" : [
                {
                    "attributes" : {
                        "POSITION" : 8,
                        "NORMAL" : 9,
                        "TEXCOORD_0" : 10
                    },
                    "indices" : 11
                }
            ]
        }
    ],
    "accessors" : [
        {
            "bufferView" : 0,
            "componentType" : 5126,
            "count" : 48,
            "max" : [
                1,
                0.868833065032959,
                1
            ],
            "min" : [
                -1,
                0,
                -1
            ],
            "type" : "VEC3"
        },
        {
            "bufferView" : 1,
            "componentType" : 5126,
            "count" : 48,
            "type" : "VEC3"
        },
        {
            "bufferView" : 2,
            "componentType" : 5126,
            "count" : 48,
            "type" : "VEC2"
        },
        {
            "bufferView" : 3,
            "componentType" : 5123,
            "count" : 84,
            "type" : "SCALAR"
        },
        {
            "bufferView" : 4,
            "componentType" : 5126,
            "count" : 48,
            "max" : [
                1,
                0.868833065032959,
                1
            ],
            "min" : [
                -1,
                0,
                -0.7071067690849304
            ],
            "type" : "VEC3"
        },
        {
            "bufferView" : 5,
            "componentType" : 5126,
            "count" : 48,
            "type" : "VEC3"
        },
        {
            "bufferView" : 6,
            "componentType" : 5126,
            "count" : 48,
            "type" : "VEC2"
        },
        {
            "bufferView" : 7,
            "componentType" : 5123,
            "count" : 84,
            "type" : "SCALAR"
        },
        {
            "bufferView" : 8,
            "componentType" : 5126,
            "count" : 80,
            "max" : [
                1,
                0.868833065032959,
                1
            ],
            "min" : [
                -1,
                0,
                -1
            ],
            "type" : "VEC3"
        },
        {
            "bufferView" : 9,
            "componentType" : 5126,
            "count" : 80,
            "type" : "VEC3"
        },
        {
            "bufferView" : 10,
            "componentType" : 5126,
            "count" : 80,
            "type" : "VEC2"
        },
        {
            "bufferView" : 11,
            "componentType" : 5123,
            "count" : 132,
            "type" : "SCALAR"
        }
    ],
    "bufferViews" : [
        {
            "buffer" : 0,
            "byteLength" : 576,
            "byteOffset" : 0
        },
        {
            "buffer" : 0,
            "byteLength" : 576,
            "byteOffset" : 576
        },
        {
            "buffer" : 0,
            "byteLength" : 384,
            "byteOffset" : 1152
        },
        {
            "buffer" : 0,
            "byteLength" : 168,
            "byteOffset" : 1536
        },
        {
            "buffer" : 0,
            "byteLength" : 576,
            "byteOffset" : 1704
        },
        {
            "buffer" : 0,
            "byteLength" : 576,
            "byteOffset" : 2280
        },
        {
            "buffer" : 0,
            "byteLength" : 384,
            "byteOffset" : 2856
        },
        {
            "buffer" : 0,
            "byteLength" : 168,
            "byteOffset" : 3240
        },
        {
            "buffer" : 0,
            "byteLength" : 960,
            "byteOffset" : 3408
        },
        {
            "buffer" : 0,
            "byteLength" : 960,
            "byteOffset" : 4368
        },
        {
            "buffer" : 0,
            "byteLength" : 640,
            "byteOffset" : 5328
        },
        {
            "buffer" : 0,
            "byteLength" : 264,
            "byteOffset" : 5968
        }
    ],
    "buffers" : [
        {
            "byteLength" : 6232,
            "uri" : "data:application/octet-stream;base64,"
        }
    ]
}
