{
    "asset" : {
        "generator" : "Khronos glTF Blender I/O v3.3.27",
        "version" : "2.0"
    },
    "extensionsUsed" : [
        "OMI_collider"
    ],
    "scene" : 0,
    "scenes" : [
        {
            "name" : "Scene",
            "nodes" : [
                3,
                6
            ]
        }
    ],
    "nodes" : [
        {
            "mesh" : 0,
            "name" : "Cube",
            "translation" : [
                9,
                1,
                0
            ]
        },
        {
            "extensions" : {
                "OMI_collider" : {
                    "type" : "mesh",
                    "mesh" : 1
                }
            },
            "name" : "LayoutGeo_Collider"
        },
        {
            "children" : [
                5
            ],
            "name" : "LayoutGeo_Collider_Parent",
            "rotation" : [
                -0.05325748026371002,
                0.1350860446691513,
                0.35801464319229126,
                0.9223561882972717
            ],
            "scale" : [
                1,
                0.4485514163970947,
                1
            ],
            "translation" : [
                -3.462636947631836,
                1.5747456550598145,
                -1.8113946914672852
            ]
        },
        {
            "children" : [
                0,
                2
            ],
            "name" : "Root"
        },
        {
            "extensions" : {
                "OMI_collider" : {
                    "type" : "box",
                    "extents" : [
                        1.0,
                        1.0,
                        1.0
                    ]
                }
            },
            "name" : "Cube_Collider"
        },
        {
            "children" : [
                1
            ],
            "mesh" : 1,
            "name" : "LayoutGeo_Collider_DisplayMesh"
        },
        {
            "children" : [
                4
            ],
            "mesh" : 2,
            "name" : "Cube_Collider_DisplayMesh",
            "rotation" : [
                0.11273020505905151,
                -0.2692779004573822,
                0.009568477049469948,
                0.9563941359519958
            ],
            "scale" : [
                3.7865729331970215,
                1,
                5.352657794952393
            ],
            "translation" : [
                0,
                1,
                10
            ]
        }
    ],
    "meshes" : [
        {
            "name" : "Cube_Mesh",
            "primitives" : [
                {
                    "attributes" : {
                        "POSITION" : 0,
                        "NORMAL" : 1,
                        "TEXCOORD_0" : 2
                    },
                    "indices" : 3
                }
            ]
        },
        {
            "name" : "LayoutGeo_Collider_Mesh",
            "primitives" : [
                {
                    "attributes" : {
                        "POSITION" : 4,
                        "NORMAL" : 5,
                        "TEXCOORD_0" : 6
                    },
                    "indices" : 7
                }
            ]
        },
        {
            "name" : "Cube_Collider_Mesh",
            "primitives" : [
                {
                    "attributes" : {
                        "POSITION" : 8,
                        "NORMAL" : 9,
                        "TEXCOORD_0" : 10
                    },
                    "indices" : 3
                }
            ]
        }
    ],
    "accessors" : [
        {
            "bufferView" : 0,
            "componentType" : 5126,
            "count" : 96,
            "max" : [
                1,
                1,
                1
            ],
            "min" : [
                -1,
                -1,
                -1
            ],
            "type" : "VEC3"
        },
        {
            "bufferView" : 1,
            "componentType" : 5126,
            "count" : 96,
            "type" : "VEC3"
        },
        {
            "bufferView" : 2,
            "componentType" : 5126,
            "count" : 96,
            "type" : "VEC2"
        },
        {
            "bufferView" : 3,
            "componentType" : 5123,
            "count" : 132,
            "type" : "SCALAR"
        },
        {
            "bufferView" : 4,
            "componentType" : 5126,
            "count" : 145,
            "max" : [
                9,
                9,
                6
            ],
            "min" : [
                -6,
                0,
                -10
            ],
            "type" : "VEC3"
        },
        {
            "bufferView" : 5,
            "componentType" : 5126,
            "count" : 145,
            "type" : "VEC3"
        },
        {
            "bufferView" : 6,
            "componentType" : 5126,
            "count" : 145,
            "type" : "VEC2"
        },
        {
            "bufferView" : 7,
            "componentType" : 5123,
            "count" : 300,
            "type" : "SCALAR"
        },
        {
            "bufferView" : 8,
            "componentType" : 5126,
            "count" : 96,
            "max" : [
                1,
                1,
                1
            ],
            "min" : [
                -1,
                -1,
                -1
            ],
            "type" : "VEC3"
        },
        {
            "bufferView" : 9,
            "componentType" : 5126,
            "count" : 96,
            "type" : "VEC3"
        },
        {
            "bufferView" : 10,
            "componentType" : 5126,
            "count" : 96,
            "type" : "VEC2"
        }
    ],
    "bufferViews" : [
        {
            "buffer" : 0,
            "byteLength" : 1152,
            "byteOffset" : 0,
            "target" : 34962
        },
        {
            "buffer" : 0,
            "byteLength" : 1152,
            "byteOffset" : 1152,
            "target" : 34962
        },
        {
            "buffer" : 0,
            "byteLength" : 768,
            "byteOffset" : 2304,
            "target" : 34962
        },
        {
            "buffer" : 0,
            "byteLength" : 264,
            "byteOffset" : 3072,
            "target" : 34963
        },
        {
            "buffer" : 0,
            "byteLength" : 1740,
            "byteOffset" : 3336,
            "target" : 34962
        },
        {
            "buffer" : 0,
            "byteLength" : 1740,
            "byteOffset" : 5076,
            "target" : 34962
        },
        {
            "buffer" : 0,
            "byteLength" : 1160,
            "byteOffset" : 6816,
            "target" : 34962
        },
        {
            "buffer" : 0,
            "byteLength" : 600,
            "byteOffset" : 7976,
            "target" : 34963
        },
        {
            "buffer" : 0,
            "byteLength" : 1152,
            "byteOffset" : 8576,
            "target" : 34962
        },
        {
            "buffer" : 0,
            "byteLength" : 1152,
            "byteOffset" : 9728,
            "target" : 34962
        },
        {
            "buffer" : 0,
            "byteLength" : 768,
            "byteOffset" : 10880,
            "target" : 34962
        }
    ],
    "buffers" : [
        {
            "byteLength" : 11648,
            "uri" : "data:application/octet-stream;base64,"
        }
    ]
}
