{
    "asset" : {
        "generator" : "Khronos glTF Blender I/O v3.2.43",
        "version" : "2.0"
    },
    "extensionsUsed" : [
        "OMI_collider"
    ],
    "scene" : 0,
    "scenes" : [
        {
            "name" : "Scene",
            "nodes" : [
                0,
                3
            ]
        }
    ],
    "nodes" : [
        {
            "extensions" : {
                "OMI_collider" : {
                    "type" : "box",
                    "extents" : [
                        1.0,
                        1.0,
                        1.0
                    ]
                }
            },
            "name" : "Box_01_Collider.001",
            "rotation" : [
                0,
                0.7071068286895752,
                0,
                0.7071068286895752
            ],
            "scale" : [
                -1,
                -1,
                -1
            ],
            "translation" : [
                2,
                0,
                0
            ]
        },
        {
            "extensions" : {
                "OMI_collider" : {
                    "type" : "box",
                    "extents" : [
                        1.0,
                        1.0,
                        1.0
                    ]
                }
            },
            "name" : "Box_01_Collider"
        },
        {
            "children" : [
                1
            ],
            "mesh" : 0,
            "name" : "Box_01",
            "rotation" : [
                0,
                0.7071068286895752,
                0,
                0.7071068286895752
            ]
        },
        {
            "children" : [
                2
            ],
            "name" : "Empty",
            "rotation" : [
                0,
                1,
                0,
                0
            ],
            "scale" : [
                -1,
                -1,
                -1
            ],
            "translation" : [
                -2,
                0,
                0
            ]
        }
    ],
    "materials" : [
        {
            "doubleSided" : true,
            "name" : "Material.001",
            "pbrMetallicRoughness" : {
                "baseColorFactor" : [
                    0.800000011920929,
                    0.800000011920929,
                    0.800000011920929,
                    1
                ],
                "metallicFactor" : 0,
                "roughnessFactor" : 0.4000000059604645
            }
        }
    ],
    "meshes" : [
        {
            "name" : "Box_Display_Mesh",
            "primitives" : [
                {
                    "attributes" : {
                        "POSITION" : 0,
                        "NORMAL" : 1,
                        "TEXCOORD_0" : 2
                    },
                    "indices" : 3,
                    "material" : 0
                }
            ]
        }
    ],
    "accessors" : [
        {
            "bufferView" : 0,
            "componentType" : 5126,
            "count" : 1298,
            "max" : [
                1,
                1,
                1
            ],
            "min" : [
                -1,
                -1,
                -1
            ],
            "type" : "VEC3"
        },
        {
            "bufferView" : 1,
            "componentType" : 5126,
            "count" : 1298,
            "type" : "VEC3"
        },
        {
            "bufferView" : 2,
            "componentType" : 5126,
            "count" : 1298,
            "type" : "VEC2"
        },
        {
            "bufferView" : 3,
            "componentType" : 5123,
            "count" : 6516,
            "type" : "SCALAR"
        }
    ],
    "bufferViews" : [
        {
            "buffer" : 0,
            "byteLength" : 15576,
            "byteOffset" : 0
        },
        {
            "buffer" : 0,
            "byteLength" : 15576,
            "byteOffset" : 15576
        },
        {
            "buffer" : 0,
            "byteLength" : 10384,
            "byteOffset" : 31152
        },
        {
            "buffer" : 0,
            "byteLength" : 13032,
            "byteOffset" : 41536
        }
    ],
    "buffers" : [
        {
            "byteLength" : 54568,
            "uri" : "data:application/octet-stream;base64,"
        }
    ]
}
